<svg width="1440" height="1024" viewBox="0 0 1440 1024" fill="none" xmlns="http://www.w3.org/2000/svg">
<g id="Desktop - 1">
<rect width="1440" height="1024" fill="#3A3A3A"/>
<path id="wave" fill-rule="evenodd" clip-rule="evenodd" d="M0 981L60 974C120 966 240 952 360 894C480 837 600 736 720 736C840 736 960 837 1080 837C1200 837 1320 736 1380 686L1440 635V1024H1380C1320 1024 1200 1024 1080 1024C960 1024 840 1024 720 1024C600 1024 480 1024 360 1024C240 1024 120 1024 60 1024H0V981Z" fill="#1AA3FF"/>
<g id="blue-polygon" filter="url(#filter0_f)">
<path d="M142.289 696.198L171.248 703.611L149.964 725.089L142.289 696.198Z" fill="#18A0FB"/>
<path d="M142.661 694.745L140.182 694.111L140.839 696.583L148.514 725.474L149.186 728.005L151.029 726.145L172.313 704.667L174.156 702.807L171.62 702.158L142.661 694.745Z" stroke="black" stroke-width="3"/>
</g>
<g id="orange-poly" filter="url(#filter1_d)">
<path d="M1117.6 644.643L1112.54 676.121L1089.35 659.418L1117.6 644.643Z" fill="#F25757"/>
<path d="M1119.08 644.882L1119.55 641.928L1116.9 643.314L1088.65 658.089L1086.5 659.215L1088.47 660.635L1111.66 677.338L1113.63 678.758L1114.02 676.359L1119.08 644.882Z" stroke="black" stroke-width="3"/>
</g>
<g id="left-star" filter="url(#filter2_d)">
<path d="M121.047 192.701L127.222 201.236L137.248 198L131.038 206.511L137.214 215.046L127.201 211.771L120.992 220.281L121.013 209.747L111 206.471L121.026 203.236L121.047 192.701Z" fill="#FFFF33"/>
<path d="M122.262 191.822L119.556 188.081L119.547 192.698L119.528 202.143L110.539 205.044L106.146 206.462L110.534 207.897L119.511 210.833L119.492 220.278L119.483 224.895L122.204 221.166L127.771 213.535L136.747 216.472L141.135 217.907L138.429 214.167L132.893 206.515L138.459 198.884L141.18 195.155L136.787 196.573L127.798 199.474L122.262 191.822Z" stroke="#0D0D0D" stroke-width="3"/>
</g>
<path id="middle-star" d="M513.78 409.65L518.322 407.948L513.612 406.789L501.938 403.916L501.267 392.491L501.008 388.062L498.526 391.74L491.968 401.463L480.236 398.576L475.68 397.454L478.741 401.011L486.327 409.826L479.824 419.467L477.2 423.357L481.594 421.711L492.907 417.471L500.558 426.361L503.452 429.724L503.192 425.294L502.522 413.869L513.78 409.65Z" fill="#FFFF00" stroke="black" stroke-width="3"/>
<g id="Line" filter="url(#filter3_d)">
<line x1="1303.9" y1="467.502" x2="1351.9" y2="465.502" stroke="#18A0FB" stroke-width="5"/>
</g>
<g id="right-star" filter="url(#filter4_d)">
<path d="M1308.06 91.8755L1304.92 103.067L1314.59 109.515L1302.98 109.984L1299.83 121.175L1295.8 110.273L1284.18 110.741L1293.3 103.535L1289.27 92.6332L1298.94 99.0816L1308.06 91.8755Z" fill="#FFFF00"/>
<path d="M1309.51 92.2812L1310.76 87.8367L1307.13 90.6985L1298.87 97.229L1290.1 91.3851L1286.26 88.8242L1287.86 93.1538L1291.52 103.034L1283.25 109.564L1279.63 112.426L1284.24 112.24L1294.77 111.816L1298.43 121.696L1300.03 126.025L1301.28 121.581L1304.13 111.439L1314.65 111.014L1319.26 110.828L1315.42 108.267L1306.66 102.423L1309.51 92.2812Z" stroke="black" stroke-width="3"/>
</g>
<g id="white-poly" filter="url(#filter5_d)">
<path d="M605.687 730.9L605.963 701.218L630.35 714.382L605.687 730.9Z" fill="white"/>
<path d="M627.448 714.52L607.214 728.072L607.44 703.72L627.448 714.52Z" stroke="black" stroke-width="3"/>
</g>
<path id="Polygon 1" d="M978.338 210.302L980.241 189.344L997.78 200.975L978.338 210.302Z" fill="#008000" stroke="black" stroke-width="3"/>
</g>
<defs>
<filter id="filter0_f" x="120.747" y="674.564" width="59.3175" height="59.3559" filterUnits="userSpaceOnUse" color-interpolation-filters="sRGB">
<feFlood flood-opacity="0" result="BackgroundImageFix"/>
<feBlend mode="normal" in="SourceGraphic" in2="BackgroundImageFix" result="shape"/>
<feGaussianBlur stdDeviation="1.5" result="effect1_foregroundBlur"/>
</filter>
<filter id="filter1_d" x="1079.65" y="628.02" width="61.3991" height="61.3751" filterUnits="userSpaceOnUse" color-interpolation-filters="sRGB">
<feFlood flood-opacity="0" result="BackgroundImageFix"/>
<feColorMatrix in="SourceAlpha" type="matrix" values="0 0 0 0 0 0 0 0 0 0 0 0 0 0 0 0 0 0 127 0"/>
<feOffset dy="4"/>
<feGaussianBlur stdDeviation="2"/>
<feColorMatrix type="matrix" values="0 0 0 0 0 0 0 0 0 0 0 0 0 0 0 0 0 0 0.25 0"/>
<feBlend mode="normal" in2="BackgroundImageFix" result="effect1_dropShadow"/>
<feBlend mode="normal" in="SourceGraphic" in2="effect1_dropShadow" result="shape"/>
</filter>
<filter id="filter2_d" x="92.1542" y="176.391" width="65.2715" height="63.8189" filterUnits="userSpaceOnUse" color-interpolation-filters="sRGB">
<feFlood flood-opacity="0" result="BackgroundImageFix"/>
<feColorMatrix in="SourceAlpha" type="matrix" values="0 0 0 0 0 0 0 0 0 0 0 0 0 0 0 0 0 0 127 0"/>
<feOffset dy="4"/>
<feGaussianBlur stdDeviation="2"/>
<feColorMatrix type="matrix" values="0 0 0 0 0 0 0 0 0 0 0 0 0 0 0 0 0 0 0.25 0"/>
<feBlend mode="normal" in2="BackgroundImageFix" result="effect1_dropShadow"/>
<feBlend mode="normal" in="SourceGraphic" in2="effect1_dropShadow" result="shape"/>
</filter>
<filter id="filter3_d" x="1299.79" y="463.004" width="56.2082" height="14.9957" filterUnits="userSpaceOnUse" color-interpolation-filters="sRGB">
<feFlood flood-opacity="0" result="BackgroundImageFix"/>
<feColorMatrix in="SourceAlpha" type="matrix" values="0 0 0 0 0 0 0 0 0 0 0 0 0 0 0 0 0 0 127 0"/>
<feOffset dy="4"/>
<feGaussianBlur stdDeviation="2"/>
<feColorMatrix type="matrix" values="0 0 0 0 0 0 0 0 0 0 0 0 0 0 0 0 0 0 0.25 0"/>
<feBlend mode="normal" in2="BackgroundImageFix" result="effect1_dropShadow"/>
<feBlend mode="normal" in="SourceGraphic" in2="effect1_dropShadow" result="shape"/>
</filter>
<filter id="filter4_d" x="1263.31" y="70.235" width="74.4847" height="73.8209" filterUnits="userSpaceOnUse" color-interpolation-filters="sRGB">
<feFlood flood-opacity="0" result="BackgroundImageFix"/>
<feColorMatrix in="SourceAlpha" type="matrix" values="0 0 0 0 0 0 0 0 0 0 0 0 0 0 0 0 0 0 127 0"/>
<feOffset dy="4"/>
<feGaussianBlur stdDeviation="2"/>
<feColorMatrix type="matrix" values="0 0 0 0 0 0 0 0 0 0 0 0 0 0 0 0 0 0 0.25 0"/>
<feBlend mode="normal" in2="BackgroundImageFix" result="effect1_dropShadow"/>
<feBlend mode="normal" in="SourceGraphic" in2="effect1_dropShadow" result="shape"/>
</filter>
<filter id="filter5_d" x="589.494" y="701.218" width="44.8557" height="44.2633" filterUnits="userSpaceOnUse" color-interpolation-filters="sRGB">
<feFlood flood-opacity="0" result="BackgroundImageFix"/>
<feColorMatrix in="SourceAlpha" type="matrix" values="0 0 0 0 0 0 0 0 0 0 0 0 0 0 0 0 0 0 127 0"/>
<feOffset dy="4"/>
<feGaussianBlur stdDeviation="2"/>
<feColorMatrix type="matrix" values="0 0 0 0 0 0 0 0 0 0 0 0 0 0 0 0 0 0 0.25 0"/>
<feBlend mode="normal" in2="BackgroundImageFix" result="effect1_dropShadow"/>
<feBlend mode="normal" in="SourceGraphic" in2="effect1_dropShadow" result="shape"/>
</filter>
</defs>
</svg>
